<?xml version="1.0" encoding="utf-8"?>
<!-- Generator: Adobe Illustrator 23.0.1, SVG Export Plug-In . SVG Version: 6.00 Build 0)  -->
<svg preserveAspectRatio="xMinYMin meet" version="1.1" id="Layer_1" xmlns="http://www.w3.org/2000/svg" xmlns:xlink="http://www.w3.org/1999/xlink" x="0px" y="0px"
	 viewBox="0 0 129.8 74.3" style="enable-background:new 0 0 129.8 74.3;" xml:space="preserve">

<path d="M127.3,50.7c0,0-0.3,0-0.4-0.2c-0.2-0.2-0.2-0.5-0.2-0.7c0-0.4,0.5-0.8,1-0.8c0.5,0,0.9,0.4,0.9,0.8
	C128.5,50.5,128.1,50.8,127.3,50.7z"/>
<path d="M125,55.8c-0.7,0-0.8-0.2-0.8-0.8s0.1-0.9,0.9-0.9s0.8,0.2,0.8,0.9S125.7,55.8,125,55.8z"/>
<path d="M125.8,44.8c0,0.7-0.1,0.9-0.8,0.9s-0.9-0.1-0.9-0.8s0.1-0.9,0.8-0.9S125.8,44.2,125.8,44.8z"/>
<path d="M6.5,39c-0.5,0-0.9,0.4-0.9,0.8c0,0.5,0.3,0.8,1.2,0.8c0.2,0,0.4-0.1,0.5-0.2c0.2-0.2,0.3-0.5,0.2-0.7C7.5,39.4,7,39,6.5,39
	z"/>
<path d="M11.6,39c-0.5,0-0.9,0.3-1,0.8c0,0.5,0.3,0.8,0.8,0.9h0.1c0.7,0,1-0.3,1-0.9C12.4,39.4,12.1,39,11.6,39z"/>
<path d="M16.6,40.7c0.3-0.1,0.6,0,0.7-0.2c0.2-0.2,0.3-0.5,0.3-0.7c0-0.4-0.5-0.8-0.9-0.8s-1,0.4-1,0.8c0,0.3,0.1,0.5,0.2,0.7
	C16.1,40.6,16.4,40.7,16.6,40.7z"/>
<path d="M21.9,40.7c0.2,0,0.4-0.1,0.5-0.2c0.2-0.2,0.3-0.5,0.2-0.7c0-0.4-0.5-0.8-1-0.8s-0.9,0.4-0.9,0.8
	C20.7,40.3,21.1,40.7,21.9,40.7z"/>
<path d="M26.7,39c-0.4,0-1,0.4-1,0.8c0,0.3,0.1,0.5,0.2,0.7c0.1,0.1,0.4,0.2,0.4,0.2c0.9,0,1.2-0.3,1.2-0.8
	C27.6,39.4,27.2,39,26.7,39z"/>
<path d="M31.8,39c-0.4,0-1,0.4-1,0.8c0,0.3,0.1,0.5,0.2,0.7c0.1,0.1,0.4,0.1,0.4,0.2c0.9,0,1.2-0.3,1.2-0.8
	C32.6,39.4,32.2,39,31.8,39z"/>
<path d="M36.8,39c-0.5,0-0.9,0.3-1,0.8c0,0.5,0.4,0.8,0.8,0.9h0.1c0.7,0,1-0.3,1-0.9C37.6,39.4,37.3,39,36.8,39z"/>
<path d="M41.9,39c-0.4,0-1,0.4-1,0.8c0,0.3,0.1,0.5,0.2,0.7c0.1,0.1,0.4,0.2,0.4,0.2c0.9,0,1.2-0.3,1.2-0.8
	C42.7,39.4,42.3,39,41.9,39z"/>
<path d="M46.9,39c-0.4,0-1,0.4-1,0.8c0,0.3,0.1,0.5,0.2,0.7c0.1,0.1,0.4,0.2,0.4,0.2c0.9,0,1.2-0.3,1.2-0.8
	C47.7,39.4,47.4,39,46.9,39z"/>
<path d="M51.9,39c-0.4,0-1,0.4-0.9,0.8c0,0.3,0.1,0.5,0.2,0.7c0.1,0.1,0.4,0.1,0.4,0.2c0.9,0,1.2-0.3,1.2-0.8
	C52.8,39.3,52.4,39,51.9,39z"/>
<path d="M57.2,40.7c0,0,0.3,0,0.5-0.1c0.2-0.2,0.3-0.5,0.3-0.7c0.1-0.4-0.4-0.8-0.9-0.9c-0.5,0-0.9,0.4-1,0.9
	C56,40.4,56.3,40.7,57.2,40.7z"/>
<path d="M87.4,40.7c0.2,0,0.4-0.1,0.5-0.2c0.2-0.2,0.3-0.5,0.2-0.7c0-0.4-0.5-0.8-1-0.8s-0.9,0.4-0.9,0.8
	C86.2,40.4,86.6,40.7,87.4,40.7z"/>
<path d="M92.4,40.7c0.2,0,0.4-0.1,0.5-0.2c0.2-0.2,0.3-0.5,0.2-0.7c0-0.4-0.5-0.8-1-0.8s-0.9,0.4-0.9,0.8
	C91.3,40.4,91.6,40.7,92.4,40.7z"/>
<path d="M97.5,40.7c0,0,0.3,0,0.5-0.1c0.2-0.2,0.3-0.5,0.3-0.7c0.1-0.4-0.4-0.8-0.9-0.9c-0.5,0-0.9,0.4-1,0.9
	C96.4,40.4,96.7,40.7,97.5,40.7z"/>
<path d="M102.5,40.7c0.2,0,0.4-0.1,0.5-0.2c0.2-0.2,0.3-0.5,0.2-0.7c0-0.4-0.5-0.8-1-0.8s-0.9,0.4-0.9,0.8
	C101.4,40.4,101.7,40.7,102.5,40.7z"/>
<path d="M107.3,40.7c0.3-0.1,0.6,0,0.7-0.2c0.2-0.2,0.3-0.5,0.3-0.7c0.1-0.4-0.5-0.8-0.9-0.8s-1,0.4-1,0.8c0,0.3,0.1,0.5,0.2,0.7
	C106.8,40.6,107.1,40.7,107.3,40.7z"/>
<path d="M112.5,39c-0.5,0-0.9,0.4-1,0.9c0,0.4,0.3,0.8,0.8,0.8c0,0,0,0,0.1,0c0.8,0,1-0.2,1.1-0.8C113.4,39.4,113,39,112.5,39z"/>
<path d="M117.5,39c-0.4,0-1,0.4-1,0.8c0,0.3,0.1,0.5,0.2,0.7c0.1,0.2,0.4,0.2,0.4,0.2c0.9,0,1.2-0.3,1.2-0.8
	C118.3,39.4,118,39,117.5,39z"/>
<path d="M122.4,40.7c0.7,0,1-0.3,1-0.9c-0.2-0.5-0.7-0.8-1.2-0.7c-0.3,0.1-0.6,0.4-0.7,0.7C121.5,40.3,121.9,40.7,122.4,40.7
	L122.4,40.7z"/>
<path d="M6.5,49.1c-0.5,0-0.9,0.4-0.9,0.8c0,0.5,0.3,0.8,1.2,0.8c0.2,0,0.4-0.1,0.5-0.2c0.2-0.2,0.3-0.5,0.2-0.7
	C7.5,49.5,7,49.1,6.5,49.1z"/>
<path d="M11.8,50.7c0.2,0,0.4-0.1,0.5-0.2c0.2-0.2,0.3-0.5,0.2-0.7c0-0.4-0.5-0.8-1-0.8s-0.9,0.4-0.9,0.8
	C10.6,50.4,11,50.7,11.8,50.7z"/>
<path d="M16.8,50.7c0.2,0,0.4-0.1,0.5-0.2c0.2-0.2,0.3-0.5,0.2-0.7c0-0.4-0.5-0.8-1-0.8s-0.9,0.4-0.9,0.8
	C15.7,50.4,16,50.7,16.8,50.7z"/>
<path d="M21.7,49.1c-0.4,0-1,0.4-1,0.8c0,0.3,0.1,0.5,0.2,0.7c0.2,0.2,0.5,0.2,0.7,0.2s0.6,0,0.7-0.2c0.2-0.2,0.3-0.4,0.3-0.7
	C22.7,49.6,22.2,49.1,21.7,49.1z"/>
<path d="M26.8,49.1c-0.5,0-0.9,0.4-1,0.9c0,0.5,0.3,0.8,1.2,0.8c0,0,0.3,0,0.5-0.1c0.2-0.2,0.3-0.5,0.3-0.7
	C27.7,49.6,27.2,49.1,26.8,49.1z"/>
<path d="M31.8,49.1c-0.5,0-0.9,0.3-1,0.8c0,0.5,0.3,0.8,0.8,0.9h0.1c0.7,0,1-0.3,1-0.9C32.6,49.4,32.2,49.1,31.8,49.1z"/>
<path d="M36.7,49.1c-0.4,0-1,0.5-0.9,0.9c0,0.3,0.1,0.5,0.3,0.7c0.1,0.1,0.4,0.1,0.5,0.1c0.9,0,1.1-0.2,1.2-0.8
	C37.7,49.4,37.3,49.1,36.7,49.1z"/>
<path d="M41.9,49.1c-0.4,0-1,0.4-1,0.8c0,0.3,0.1,0.5,0.2,0.7s0.4,0.2,0.4,0.2c0.9,0,1.2-0.3,1.2-0.8C42.7,49.5,42.3,49.1,41.9,49.1
	z"/>
<path d="M47.1,50.7c0,0,0.3,0,0.5-0.1c0.2-0.2,0.3-0.4,0.3-0.7c0.1-0.4-0.5-0.8-0.9-0.9s-1.1,0.5-1,0.9S46.2,50.7,47.1,50.7z"/>
<path d="M51.9,49.1c-0.4,0-1,0.4-1,0.8c0,0.3,0.1,0.5,0.2,0.7c0.2,0.1,0.3,0.2,0.5,0.2c0.8,0,1.1-0.3,1.1-0.8
	C52.8,49.5,52.4,49.1,51.9,49.1z"/>
<path d="M57,49.1c-0.5,0-0.9,0.3-1,0.8c0,0.5,0.4,0.8,0.8,0.9h0.1c0.7,0,1-0.3,1-0.9C57.8,49.4,57.4,49.1,57,49.1z"/>
<path d="M61.9,49.1c-0.4,0-0.9,0.5-0.9,0.9c0,0.3,0.1,0.5,0.3,0.7c0.1,0.1,0.4,0.1,0.5,0.1c0.8,0,1.1-0.2,1.2-0.8
	C62.9,49.4,62.5,49.1,61.9,49.1z"/>
<path d="M67.2,50.7c0,0,0.3,0,0.5-0.1c0.2-0.2,0.3-0.5,0.3-0.7c0.1-0.4-0.4-0.8-0.9-0.9c-0.5,0-0.9,0.4-1,0.9
	C66.1,50.5,66.4,50.7,67.2,50.7z"/>
<path d="M72,49.1c-0.4,0-1,0.5-0.9,0.9c0,0.3,0.1,0.5,0.3,0.7c0.1,0.1,0.4,0.1,0.5,0.1c0.9,0,1.1-0.2,1.2-0.8
	C73,49.4,72.5,49.1,72,49.1z"/>
<path d="M77.3,50.7c0.2,0,0.4-0.1,0.5-0.2c0.2-0.2,0.3-0.5,0.2-0.7c0-0.4-0.5-0.8-1-0.8s-0.9,0.4-0.9,0.8
	C76.2,50.4,76.5,50.7,77.3,50.7z"/>
<path d="M82.2,49.1c-0.5,0-0.9,0.3-1,0.8c0,0.5,0.3,0.8,0.8,0.9h0.1c0.7,0,1-0.3,1-0.9C83,49.4,82.6,49.1,82.2,49.1z"/>
<path d="M87.2,49.1c-0.5,0-0.9,0.3-1,0.8c0,0.5,0.3,0.8,0.8,0.9h0.1c0.7,0,1-0.3,1-0.9C88,49.4,87.7,49.1,87.2,49.1z"/>
<path d="M92.3,49.1c-0.4,0-1,0.4-1,0.8c0,0.3,0.1,0.5,0.2,0.7c0.1,0.1,0.4,0.2,0.4,0.2c0.9,0,1.2-0.3,1.2-0.8
	C93.1,49.5,92.7,49.1,92.3,49.1z"/>
<path d="M96.3,49.9c0,0.3,0.1,0.5,0.2,0.7c0.2,0.2,0.5,0.2,0.7,0.2s0.6,0,0.7-0.2c0.2-0.2,0.3-0.5,0.3-0.7c0.1-0.4-0.5-0.8-0.9-0.8
	S96.3,49.5,96.3,49.9z"/>
<path d="M102.5,50.7c0.2,0,0.4-0.1,0.5-0.2c0.2-0.2,0.3-0.5,0.2-0.7c0-0.4-0.5-0.8-1-0.8s-0.9,0.4-0.9,0.8
	C101.4,50.4,101.7,50.7,102.5,50.7z"/>
<path d="M107.4,49.1c-0.4,0-1,0.4-1,0.8c0,0.3,0.1,0.5,0.2,0.7c0.1,0.1,0.4,0.1,0.4,0.2c0.9,0,1.2-0.3,1.2-0.8
	C108.2,49.4,107.8,49.1,107.4,49.1z"/>
<path d="M112.4,49.1c-0.5,0-0.9,0.4-0.9,0.8c0,0.5,0.4,0.8,1.1,0.8c0.2,0,0.4-0.1,0.5-0.2c0.2-0.2,0.3-0.5,0.2-0.7
	C113.4,49.5,112.8,49.1,112.4,49.1z"/>
<path d="M117.5,49.1c-0.4,0-1,0.4-1,0.8c0,0.3,0.1,0.5,0.2,0.7c0.1,0.2,0.4,0.2,0.4,0.2c0.9,0,1.2-0.3,1.2-0.8
	C118.3,49.5,118,49.1,117.5,49.1z"/>
<path d="M122.5,50.8c0.2-0.1,0.5-0.1,0.7-0.2c0.2-0.2,0.2-0.5,0.2-0.7c0-0.4-0.6-0.8-1-0.8s-1,0.5-0.9,0.9c0,0.3,0.1,0.5,0.3,0.7
	C121.9,50.8,122.2,50.7,122.5,50.8z"/>
<path d="M82.2,69.2c-0.5,0-1.1,0.5-1,0.9c0.1,0.6,0.3,0.8,1.2,0.8c0,0,0.3,0,0.5-0.1c0.2-0.2,0.3-0.4,0.3-0.7
	C83.2,69.7,82.6,69.3,82.2,69.2z"/>
<path d="M77.1,69.2c-0.5,0-0.9,0.3-1,0.8c0,0.5,0.4,0.8,0.8,0.9H77c0.7,0,1-0.3,1-0.9C77.9,69.6,77.6,69.3,77.1,69.2z"/>
<path d="M72.1,69.2c-0.5,0-0.9,0.4-1,0.9c0,0.6,0.3,0.8,1.2,0.8c0,0,0.3,0,0.5-0.1c0.2-0.2,0.3-0.4,0.3-0.7
	C73.1,69.7,72.6,69.3,72.1,69.2z"/>
<path d="M122.5,59.2c-0.4,0-1,0.4-1,0.8c0,0.3,0.1,0.5,0.2,0.7c0.2,0.2,0.5,0.2,0.7,0.2s0.6,0,0.7-0.2c0.2-0.2,0.3-0.4,0.3-0.7
	C123.5,59.6,123,59.2,122.5,59.2z"/>
<path d="M117.4,59.2c-0.5,0-0.9,0.4-0.9,0.8c0,0.5,0.4,0.8,1.1,0.8c0.2,0,0.4-0.1,0.5-0.2c0.2-0.2,0.3-0.5,0.2-0.7
	C118.4,59.6,117.9,59.2,117.4,59.2z"/>
<path d="M112.4,59.2c-0.5,0-0.9,0.4-0.9,0.8c0,0.5,0.4,0.8,1.1,0.8c0.2,0,0.4-0.1,0.5-0.2c0.2-0.2,0.3-0.5,0.2-0.7
	C113.4,59.6,112.8,59.2,112.4,59.2z"/>
<path d="M107.3,59.2c-0.5,0-0.9,0.4-0.9,0.8c0,0.5,0.4,0.8,1.1,0.8c0.2,0,0.4-0.1,0.5-0.2c0.2-0.2,0.3-0.5,0.2-0.7
	C108.3,59.6,107.8,59.1,107.3,59.2z"/>
<path d="M102.3,59.2c-0.5,0-0.9,0.3-1,0.8c0,0.5,0.4,0.8,0.8,0.9h0.1c0.7,0,1-0.3,1-0.9C103.1,59.5,102.8,59.2,102.3,59.2z"/>
<path d="M97.2,59.2c-0.4,0-1,0.5-0.9,0.9c0,0.3,0.1,0.5,0.3,0.7c0.1,0.1,0.4,0.1,0.5,0.1c0.9,0,1.1-0.2,1.2-0.8S97.7,59.1,97.2,59.2
	z"/>
<path d="M92.2,59.2c-0.5,0-0.9,0.4-0.9,0.8c0,0.5,0.4,0.8,1.1,0.8c0.2,0,0.4-0.1,0.5-0.2c0.2-0.2,0.3-0.5,0.2-0.7
	C93.2,59.6,92.7,59.1,92.2,59.2z"/>
<path d="M87.1,59.2c-0.4,0-1,0.5-0.9,0.9c0,0.3,0.1,0.5,0.3,0.7c0.1,0.1,0.4,0.1,0.5,0.1c0.9,0,1.1-0.2,1.2-0.8S87.7,59.1,87.1,59.2
	z"/>
<path d="M82.2,59.2c-0.4,0-1,0.4-1,0.8c0,0.3,0.1,0.5,0.2,0.7c0.1,0.1,0.4,0.2,0.4,0.2c0.9,0,1.2-0.3,1.2-0.8
	C83,59.5,82.6,59.2,82.2,59.2z"/>
<path d="M77.3,60.8c0.2,0,0.4-0.1,0.5-0.2c0.2-0.2,0.3-0.5,0.2-0.7c0-0.4-0.5-0.8-1-0.8s-0.9,0.4-0.9,0.8
	C76.2,60.5,76.5,60.8,77.3,60.8z"/>
<path d="M72.3,60.8c0.2,0,0.4-0.1,0.5-0.2c0.2-0.2,0.3-0.5,0.2-0.7c0-0.4-0.5-0.8-1-0.8s-0.9,0.4-0.9,0.8
	C71.1,60.5,71.5,60.8,72.3,60.8z"/>
<path d="M67.1,59.2c-0.4,0-1,0.4-1,0.8c0,0.3,0.1,0.5,0.2,0.7c0.1,0.1,0.4,0.2,0.4,0.2c0.9,0,1.2-0.3,1.2-0.8
	C67.9,59.5,67.5,59.2,67.1,59.2z"/>
<path d="M62.1,59.2c-0.5,0-0.9,0.4-1,0.9c0.1,0.6,0.3,0.8,1.2,0.8c0,0,0.3,0,0.5-0.1c0.2-0.2,0.3-0.5,0.3-0.7
	C63,59.6,62.5,59.2,62.1,59.2z"/>
<path d="M57,59.2c-0.4,0-1,0.4-1,0.8c0,0.3,0.1,0.5,0.2,0.7c0.2,0.2,0.5,0.2,0.7,0.2s0.6,0,0.7-0.2c0.2-0.2,0.3-0.5,0.3-0.7
	C58,59.6,57.4,59.2,57,59.2z"/>
<path d="M51.9,59.2c-0.4,0-1,0.4-1,0.8c0,0.3,0.1,0.5,0.2,0.7c0.1,0.1,0.4,0.2,0.4,0.2c0.9,0,1.2-0.3,1.2-0.8
	C52.8,59.5,52.4,59.2,51.9,59.2z"/>
<path d="M46.9,59.2c-0.4,0-1,0.4-1,0.8c0,0.3,0.1,0.5,0.2,0.7c0.2,0.1,0.3,0.2,0.5,0.2c0.8,0,1.2-0.3,1.2-0.8
	C47.7,59.5,47.4,59.2,46.9,59.2z"/>
<path d="M41.8,59.2c-0.5,0-0.9,0.3-1,0.8c0,0.5,0.4,0.8,0.8,0.9h0.1c0.7,0,1-0.3,1-0.9C42.7,59.5,42.3,59.2,41.8,59.2z"/>
<path d="M36.8,59.2c-0.5,0-0.9,0.4-0.9,0.8c0,0.5,0.3,0.8,1.2,0.8c0.2,0,0.4-0.1,0.5-0.2c0.2-0.2,0.3-0.5,0.2-0.7
	C37.8,59.6,37.2,59.1,36.8,59.2z"/>
<path d="M31.8,59.2c-0.5,0-0.9,0.3-1,0.8c0,0.5,0.3,0.8,0.8,0.9h0.1c0.7,0,1-0.3,1-0.9C32.6,59.5,32.2,59.2,31.8,59.2z"/>
<path d="M26.7,59.2c-0.4,0-1,0.5-0.9,0.8c0,0.3,0.1,0.5,0.3,0.7c0.1,0.1,0.4,0.1,0.7,0.2s0.5-0.1,0.7-0.2c0.2-0.2,0.2-0.5,0.2-0.7
	C27.7,59.6,27.1,59.1,26.7,59.2z"/>
<path d="M21.7,59.2c-0.5,0-1,0.5-1,0.9s0.3,0.8,1.2,0.8c0,0,0.3,0,0.5-0.1c0.2-0.2,0.3-0.4,0.3-0.7C22.7,59.6,22.2,59.2,21.7,59.2z"
	/>
<path d="M16.6,59.2c-0.4,0-1,0.5-0.9,0.9c0,0.3,0.1,0.5,0.3,0.7c0.1,0.1,0.4,0.1,0.5,0.1c0.9,0,1.1-0.2,1.2-0.8S17.1,59.1,16.6,59.2
	z"/>
<path d="M11.5,59.2c-0.4,0-1,0.5-0.9,0.9c0,0.3,0.1,0.5,0.3,0.7c0.1,0.1,0.4,0.1,0.5,0.1c0.8,0,1.1-0.2,1.2-0.8
	C12.5,59.5,12,59.1,11.5,59.2z"/>
<path d="M120,54.1c-0.7,0-0.9,0.1-0.9,0.8s0.1,0.9,0.7,0.9s0.9-0.1,0.9-0.8S120.6,54.1,120,54.1z"/>
<path d="M114.9,54.1c-0.7,0-0.8,0.2-0.8,1c0,0.6,0.2,0.7,0.9,0.7s0.8-0.2,0.8-0.9S115.6,54.1,114.9,54.1z"/>
<path d="M109.9,54.1c-0.7,0-0.9,0.1-0.9,0.8s0.1,0.9,0.9,0.9s0.8-0.2,0.8-0.8S110.6,54.1,109.9,54.1z"/>
<path d="M104.8,54.1c-0.7,0-0.8,0.2-0.8,0.8s0.1,0.9,0.8,0.9s0.9-0.1,0.9-0.9S105.5,54.1,104.8,54.1z"/>
<path d="M99.8,54.1c-0.7,0-0.9,0.1-0.9,0.9s0.2,0.8,0.9,0.8s0.8-0.2,0.8-0.8S100.5,54.1,99.8,54.1z"/>
<path d="M94.8,54.1c-0.8,0-0.9,0.1-0.9,0.9s0.2,0.8,0.8,0.8s0.8-0.2,0.8-0.8S95.5,54.1,94.8,54.1z"/>
<path d="M89.7,54.1c-0.7,0-0.9,0.2-0.8,0.9s0.2,0.8,0.9,0.8s0.8-0.2,0.8-0.9S90.4,54.1,89.7,54.1z"/>
<path d="M84.7,54.1c-0.7,0-0.9,0.1-0.9,0.8s0.1,0.9,0.7,0.9s0.9-0.1,0.9-0.8S85.4,54.1,84.7,54.1z"/>
<path d="M79.6,54.1c-0.7,0-0.8,0.2-0.8,1c0,0.6,0.2,0.7,0.9,0.7s0.8-0.2,0.8-0.9S80.3,54.1,79.6,54.1z"/>
<path d="M74.5,54.1c-0.7,0-0.8,0.2-0.8,0.9s0.2,0.8,0.8,0.8s0.9-0.2,0.8-0.9S75.3,54.1,74.5,54.1z"/>
<path d="M69.5,54.1c-0.7,0-0.8,0.2-0.8,0.9s0.2,0.8,0.8,0.8s0.9-0.2,0.8-0.9S70.2,54.1,69.5,54.1z"/>
<path d="M64.5,54.1c-0.7,0-0.9,0.2-0.8,0.9s0.2,0.8,0.9,0.8c0.7,0,0.8-0.2,0.8-0.9S65.2,54.1,64.5,54.1z"/>
<path d="M59.5,54.1c-0.7,0-0.8,0.2-0.8,0.8s0.2,0.9,0.9,0.8s0.8-0.2,0.8-0.9S60.2,54.1,59.5,54.1z"/>
<path d="M54.4,54.1c-0.7,0-0.8,0.2-0.8,0.8s0.2,0.9,0.9,0.8s0.8-0.2,0.8-0.9S55.1,54.1,54.4,54.1z"/>
<path d="M49.4,54.1c-0.7,0-0.8,0.2-0.8,0.8s0.2,0.9,0.9,0.8c0.8,0,0.8-0.2,0.8-0.9S50.1,54.1,49.4,54.1z"/>
<path d="M44.3,54.1c-0.7,0-0.8,0.2-0.8,0.8s0.2,0.8,0.8,0.8s0.9-0.1,0.9-0.8S45.1,54.1,44.3,54.1z"/>
<path d="M39.3,54.1c-0.7,0-0.8,0.2-0.8,0.8s0.1,0.9,0.9,0.9s0.8-0.2,0.8-0.9S40,54.1,39.3,54.1z"/>
<path d="M34.3,54.1c-0.7,0-0.8,0.2-0.8,0.8s0.2,0.9,0.9,0.8s0.8-0.2,0.8-0.9S35,54.1,34.3,54.1z"/>
<path d="M29.2,54.1c-0.7,0-0.8,0.2-0.8,0.8s0.2,0.9,0.9,0.8s0.8-0.2,0.8-0.9S29.9,54.1,29.2,54.1z"/>
<path d="M24.3,55.8c0.7,0,0.8-0.2,0.8-0.9s-0.2-0.8-0.8-0.8s-0.9,0.2-0.8,0.9S23.5,55.8,24.3,55.8z"/>
<path d="M19.1,55.8c0.8,0,0.9-0.1,0.9-0.8s-0.2-0.8-0.8-0.8s-0.9,0.1-0.9,0.8S18.4,55.8,19.1,55.8z"/>
<path d="M34.4,64.2c-0.8,0-0.9,0.1-0.9,0.9s0.2,0.8,0.8,0.8s0.8-0.1,0.9-0.8S35,64.2,34.4,64.2z"/>
<path d="M39.3,64.2c-0.7,0-0.9,0.2-0.8,0.9s0.2,0.8,0.9,0.8s0.8-0.2,0.8-0.9S40,64.2,39.3,64.2z"/>
<path d="M44.3,64.2c-0.7,0-0.8,0.2-0.8,0.8s0.2,0.9,0.9,0.8s0.8-0.2,0.8-0.9S45,64.2,44.3,64.2z"/>
<path d="M49.4,64.2c-0.7,0-0.9,0.2-0.8,0.9s0.2,0.8,0.9,0.8c0.7,0,0.8-0.2,0.8-0.9S50.1,64.2,49.4,64.2z"/>
<path d="M54.4,64.2c-0.7,0-0.8,0.2-0.8,1c0,0.6,0.2,0.7,0.9,0.7s0.8-0.2,0.8-0.9S55.1,64.2,54.4,64.2z"/>
<path d="M64.4,64.2c-0.6,0-0.8,0.2-0.8,0.9s0.2,0.8,0.9,0.8c0.7,0,0.8-0.2,0.8-0.8S65.2,64.2,64.4,64.2z"/>
<path d="M69.6,64.2c-0.7,0-0.9,0.2-0.8,0.9s0.2,0.8,0.9,0.8s0.8-0.2,0.8-0.9S70.2,64.2,69.6,64.2z"/>
<path d="M74.6,64.2c-0.7,0-0.8,0.2-0.8,1c0,0.6,0.2,0.7,0.9,0.7s0.8-0.2,0.8-0.9S75.3,64.2,74.6,64.2z"/>
<path d="M79.7,64.2c-0.8,0-0.9,0.1-0.9,0.9s0.2,0.8,0.8,0.8s0.8-0.1,0.8-0.8S80.4,64.2,79.7,64.2z"/>
<path d="M84.7,64.2c-0.7,0-0.9,0.1-0.9,0.7s0.1,0.9,0.8,0.9s0.8-0.1,0.9-0.8S85.4,64.2,84.7,64.2z"/>
<path d="M89.7,64.2c-0.7,0-0.8,0.2-0.8,1c0,0.6,0.2,0.7,0.9,0.7s0.8-0.2,0.8-0.9S90.4,64.2,89.7,64.2z"/>
<path d="M104.8,64.2c-0.7,0-0.8,0.2-0.8,1c0,0.6,0.2,0.7,0.9,0.7s0.8-0.2,0.8-0.9S105.5,64.2,104.8,64.2z"/>
<path d="M109.9,64.2c-0.7,0-0.9,0.1-0.9,0.8s0.1,0.9,0.7,0.9s0.9-0.1,0.9-0.8S110.6,64.2,109.9,64.2z"/>
<path d="M115,64.2c-0.8,0-0.9,0.1-0.9,0.9s0.2,0.8,0.8,0.8s0.8-0.1,0.8-0.8S115.6,64.2,115,64.2z"/>
<path d="M120,64.2c-0.7,0-0.9,0.1-0.9,0.8s0.1,0.9,0.9,0.9s0.8-0.2,0.8-0.8S120.6,64.2,120,64.2z"/>
<path d="M14.1,54.1c-0.7,0-0.9,0.2-0.8,0.9s0.2,0.8,0.9,0.8s0.8-0.2,0.8-0.9S14.8,54.1,14.1,54.1z"/>
<path d="M9,54.1c-0.6,0-0.8,0.2-0.8,0.9s0.2,0.8,0.9,0.8s0.8-0.2,0.8-0.8S9.7,54.1,9,54.1z"/>
<path d="M120,44c-0.7,0-0.9,0.2-0.8,0.9s0.2,0.8,0.9,0.8s0.8-0.2,0.8-0.9S120.6,44,120,44z"/>
<path d="M115,44c-0.8,0-0.9,0.1-0.9,0.9s0.2,0.8,0.8,0.8s0.8-0.2,0.8-0.8S115.6,44,115,44z"/>
<path d="M109.9,44c-0.7,0-0.9,0.2-0.8,0.9s0.2,0.8,0.9,0.8s0.8-0.2,0.8-0.9S110.6,44,109.9,44z"/>
<path d="M104.8,44c-0.7,0-0.8,0.2-0.8,1c0,0.6,0.2,0.7,0.9,0.7s0.8-0.2,0.8-0.9S105.5,44,104.8,44z"/>
<path d="M99.8,44c-0.7,0-0.9,0.2-0.8,0.9s0.2,0.8,0.9,0.8s0.8-0.2,0.8-0.9S100.5,44,99.8,44z"/>
<path d="M94.8,44c-0.7,0-0.9,0.1-0.9,0.7s0.1,0.9,0.8,0.9s0.8-0.2,0.9-0.8S95.5,44.1,94.8,44z"/>
<path d="M89.6,44c-0.6,0-0.8,0.2-0.7,0.9s0.2,0.8,0.9,0.8s0.8-0.2,0.8-0.9S90.4,44,89.6,44z"/>
<path d="M84.7,44c-0.7,0-0.9,0.1-0.9,0.9s0.2,0.8,0.9,0.8s0.8-0.2,0.8-0.8S85.4,44,84.7,44z"/>
<path d="M79.6,44c-0.7,0-0.8,0.2-0.8,0.8s0.1,0.9,0.9,0.9s0.8-0.2,0.8-0.9S80.3,44,79.6,44z"/>
<path d="M74.6,44c-0.7,0-0.8,0.2-0.8,0.8s0.1,0.9,0.9,0.9s0.8-0.2,0.8-0.9S75.3,44,74.6,44z"/>
<path d="M69.6,44c-0.7,0-0.9,0.2-0.8,0.9s0.2,0.8,0.9,0.8s0.8-0.2,0.8-0.9S70.2,44,69.6,44z"/>
<path d="M64.6,44c-0.7,0-0.9,0.1-0.9,0.8s0.1,0.9,0.9,0.9c0.8,0,0.8-0.2,0.8-0.8S65.2,44,64.6,44z"/>
<path d="M59.5,44c-0.7,0-0.9,0.1-0.9,0.8s0.1,0.9,0.9,0.9s0.8-0.2,0.8-0.8S60.2,44,59.5,44z"/>
<path d="M54.4,44c-0.7,0-0.9,0.2-0.8,1c0,0.6,0.2,0.8,0.9,0.7s0.8-0.2,0.8-0.9S55.1,44,54.4,44z"/>
<path d="M49.4,44c-0.7,0-0.8,0.2-0.8,0.8s0.2,0.8,0.8,0.8c0.6,0,0.9-0.1,0.9-0.8S50.1,44,49.4,44z"/>
<path d="M44.4,44c-0.7,0-0.9,0.2-0.8,0.9s0.2,0.8,0.9,0.8s0.8-0.2,0.8-0.9S45,44,44.4,44z"/>
<path d="M39.3,44c-0.7,0-0.9,0.1-0.9,0.8s0.1,0.9,0.9,0.9s0.8-0.2,0.8-0.8S40,44,39.3,44z"/>
<path d="M34.3,44c-0.7,0-0.8,0.2-0.8,0.8s0.1,0.9,0.9,0.9s0.8-0.2,0.8-0.9S34.9,44,34.3,44z"/>
<path d="M29.2,44c-0.7,0-0.8,0.2-0.8,0.8s0.1,0.9,0.9,0.9s0.8-0.2,0.8-0.9S29.9,44,29.2,44z"/>
<path d="M24.3,45.7c0.6,0,0.8-0.2,0.8-0.9S24.9,44,24.2,44s-0.8,0.2-0.8,1C23.4,45.6,23.6,45.7,24.3,45.7z"/>
<path d="M19.3,45.7c0.6,0,0.8-0.2,0.8-0.9S19.9,44,19.2,44s-0.8,0.2-0.8,0.8S18.5,45.7,19.3,45.7z"/>
<path d="M14.1,44c-0.7,0-0.8,0.2-0.8,0.8s0.1,0.9,0.9,0.9s0.8-0.2,0.8-0.9S14.8,44,14.1,44z"/>
<path d="M9.1,44c-0.7,0-0.8,0.2-0.8,0.8s0.2,0.9,0.9,0.8s0.8-0.2,0.8-0.9S9.8,44,9.1,44z"/>
<path d="M4.1,45.7c0.6,0,0.8-0.2,0.8-0.9S4.7,44,4,44s-0.8,0.2-0.8,0.8S3.4,45.7,4.1,45.7z"/>
<path d="M114.8,34c-0.6,0-0.8,0.2-0.8,0.9s0.2,0.8,0.9,0.8s0.8-0.2,0.8-0.8S115.6,33.9,114.8,34z"/>
<path d="M109.8,34c-0.6,0-0.8,0.2-0.8,0.9s0.2,0.8,0.9,0.8s0.8-0.2,0.8-0.8S110.6,33.9,109.8,34z"/>
<path d="M104.7,34c-0.6,0-0.8,0.2-0.7,0.9s0.2,0.8,0.9,0.8s0.8-0.2,0.8-0.9S105.5,33.9,104.7,34z"/>
<path d="M99.8,34c-0.7,0-0.8,0.2-0.8,1c0,0.6,0.2,0.7,0.9,0.7s0.8-0.2,0.8-0.9S100.5,33.9,99.8,34z"/>
<path d="M44.4,34c-0.8,0-0.9,0.1-0.9,0.9s0.2,0.8,0.8,0.8s0.8-0.2,0.8-0.8S45.1,34,44.4,34z"/>
<path d="M39.4,34c-0.7,0-0.9,0.1-0.9,0.7s0.1,0.9,0.8,0.9s0.8-0.2,0.8-0.8S40,34,39.4,34z"/>
<path d="M34.3,34c-0.7,0-0.8,0.2-0.8,0.8s0.1,0.9,0.9,0.9s0.8-0.2,0.8-0.9S34.9,34,34.3,34z"/>
<path d="M29.3,34c-0.7,0-0.9,0.1-0.9,0.9s0.2,0.8,0.9,0.8s0.8-0.2,0.8-0.8S29.9,34,29.3,34z"/>
<path d="M24.1,35.6c0.8,0,0.9-0.1,0.9-0.8S24.8,34,24.2,34s-0.9,0.1-0.9,0.8S23.5,35.6,24.1,35.6z"/>
<path d="M19.2,35.6c0.7,0,0.8-0.2,0.8-0.9s-0.2-0.8-0.8-0.8s-0.9,0.2-0.8,0.9S18.5,35.6,19.2,35.6z"/>
<path d="M14.1,34c-0.7,0-0.8,0.2-0.8,0.8s0.1,0.9,0.9,0.9s0.8-0.2,0.8-0.9S14.8,34,14.1,34z"/>
<path d="M49.1,34c-0.1,0-0.3,0.1-0.4,0.2c-0.2,0.4-0.3,0.8-0.1,1.2c0.1,0.1,0.3,0.2,0.5,0.3c0.4,0,0.6,0.1,0.7,0
	c0.2-0.1,0.3-0.3,0.4-0.5c0.1-0.2,0-0.5-0.1-0.7C49.8,34.2,49.5,34.1,49.1,34z"/>
<path d="M18.8,64.2c-0.2,0-0.3,0.2-0.4,0.3c0,0.3,0,0.6,0,0.9c0,0.1,0.2,0.1,0.2,0.2c0.4,0,0.8,0,1.2,0c0.1,0,0.2-0.1,0.2-0.2
	C20.2,64.5,19.7,64,18.8,64.2z"/>
<path d="M23.8,64.2c-0.2,0-0.3,0.2-0.4,0.3c0,0.3,0,0.6,0,0.9c0,0.1,0.2,0.1,0.2,0.2c0.4,0,0.8,0,1.2,0c0.1,0,0.2-0.1,0.2-0.2
	C25.3,64.5,24.8,64,23.8,64.2z"/>
<path d="M9.5,34c-0.4-0.1-1.3,0.7-1.3,1.1c0,0.2,0.2,0.4,0.3,0.5c0.4,0.1,0.7,0.1,1.1,0c0.2-0.1,0.3-0.4,0.3-0.5c0-0.4,0-0.6,0-0.7
	C9.8,34.2,9.7,34,9.5,34z"/>
<path d="M4.5,54.1c-0.4-0.2-1.2,0.1-1.3,0.3s0.3,0.5,0.5,0.7c0.1,0.1,0.2,0.2,0.3,0.3c0.3,0.2,0.6,0.1,0.8-0.2
	c0.1-0.1,0.1-0.2,0.1-0.4v-0.1C5,54.6,4.8,54.2,4.5,54.1z"/>
<path d="M42.3,69.4c-0.3-0.1-0.6-0.1-0.9-0.1c-0.2,0.1-0.4,0.4-0.5,0.6c0.2,0.2,0.5,0.3,0.7,0.5c0.2,0.1,0.3,0.1,0.5,0.1
	c0.2-0.1,0.6,0.2,0.6-0.2c0-0.2-0.1-0.4-0.2-0.6C42.5,69.5,42.4,69.4,42.3,69.4z"/>
<path d="M28.8,64.2c-0.3,0.1-0.5,0.4-0.4,0.7l0,0c0,0.4,0,0.4,0.5,0.3c0.2,0,0.4-0.1,0.7-0.1c0.2,0,0.4,0.1,0.5-0.2
	c0-0.2-0.1-0.4-0.2-0.6C29.6,64,29.1,64.2,28.8,64.2z"/>
<path d="M67,69.2c-0.1,0-0.2,0-0.2,0s-0.4,0.3-0.5,0.4s0.2,0.2,0.4,0.3s0.4,0.3,0.6,0.4s0.2,0.4,0.4,0.1c0.2-0.2,0.3-0.4,0.2-0.6
	C67.8,69.5,67.5,69.3,67,69.2z"/>
<path d="M62,40.7c0.1,0,0.2,0,0.4,0c0.1,0,0.2-0.1,0.4-0.2c-0.1-0.1-0.1-0.3-0.2-0.4c-0.3-0.2-0.6-0.3-0.9-0.4
	c-0.1-0.1-0.2-0.3-0.3-0.1s-0.2,0.3-0.2,0.5C61.2,40.6,61.4,40.7,62,40.7z"/>
<path d="M94.4,35.6c0.1,0,0.2,0,0.2,0c0.2,0,0.3,0,0.5,0c0.3-0.1,0.6-0.4,0.5-0.7l0,0c0-0.1-0.2-0.2-0.2-0.2
	c-0.3,0.3-0.8,0.1-1.1,0.5c-0.1,0.1-0.1,0.2-0.1,0.3C94.2,35.5,94.3,35.6,94.4,35.6z"/>
<path d="M52,69.2c-0.5-0.1-0.6,0.2-0.9,0.5C51,69.8,51,69.9,51,69.9s0.2,0.2,0.3,0.2c0.3-0.1,0.7-0.2,1-0.4l0.2-0.1
	c0-0.1-0.1-0.2-0.2-0.2C52.3,69.3,52.1,69.2,52,69.2z"/>
<path d="M26.7,30.6c0.2,0,0.8,0.3,0.7-0.3c0-0.4-0.5-0.1-0.8-0.2c-0.1,0.2-0.7-0.3-0.6,0.3C26.1,30.8,26.5,30.6,26.7,30.6z"/>
<path d="M126.9,41.4c-1.2-1.7-3.2-4-5.8-5c1.8-4,1.5-9-0.6-13.9c-2.5-5.6-7-10.1-11.9-11.6c-7.7-2.5-17.7-0.5-26.8,5.1
	c-2.2-4.1-4.3-7.3-7.7-10c-4.7-3.8-10.6-5.9-16.6-6C45.9-0.2,35,7.9,31.5,19.4c-11.8-3.3-24.6,2.8-29.3,14
	c-2.4,5.8-2.9,12.5-1.3,18.2c1.8,6.3,5.9,11.1,11.7,13.6c5.7,2.4,11.9,2.6,18.1,0.5c0,0,0,0,0.1,0.1c2.8,3.6,7.2,5.8,12.5,6.2
	c6.3,0.4,12.8-1.8,17-5.8c3.8,5,9.8,8.1,15.9,8.1c0.3,0,0.6,0,1,0c8.2-0.4,14.8-5.8,20.2-11.1c3.6,3.5,7.6,5.6,12.1,6.3
	c5.9,0.9,11.2-0.6,15.2-4.6C131,58.5,131.9,48.7,126.9,41.4z M114.3,67.2c-6,0.7-12.4-3.1-15.8-6.9c-0.3-0.4-0.9-0.6-1.4-0.6
	c-0.4,0-0.9,0.1-1.1,0.4l-0.1,0.1C91.1,65,85.6,70.3,78.6,71.5c-6.4,1-13.1-2.3-16.4-8.1c-0.3-0.6-0.9-0.9-1.5-1h-0.1
	c-0.6,0-1.2,0.3-1.6,0.8c-2.5,3.5-7.4,5.6-12.9,5.8c-5.5,0.2-10.4-1.7-13.1-4.9c-0.1-0.2-0.3-0.3-0.5-0.4c-0.2-0.2-0.5-0.3-0.8-0.2
	c-7.1,2-15,1-20.5-2.7c-5.6-3.7-8.5-10.2-8-17.9c0.5-7.4,3.9-13.7,9.3-17.5c5.8-4,13.2-5,19.8-2.7c0.3,0.1,0.8,0.1,1.1-0.1
	c0.4-0.2,0.7-0.6,0.7-0.9C36.8,10.5,47.2,2.5,58.3,3.1C64,3.4,69.6,5.8,73.8,9.7c2.8,2.6,4.5,5.9,6.3,9.3c0.2,0.3,0.5,0.6,0.9,0.7
	s0.8,0,1.1-0.2c7.8-5.3,16.7-7.6,23.7-6.2c4.9,1,9.8,5.4,12.1,10.9c1.9,4.6,1.7,9.1-0.6,12.6c-0.3,0.4-0.3,0.9-0.1,1.4
	c0.3,0.5,0.9,0.9,1.5,1c3.1,0.1,5.5,3.9,6.4,5.5c2,3.7,2.4,8,1.2,11.7C124.7,61,119.7,66.5,114.3,67.2z"/>
</svg>
